<svg xmlns="http://www.w3.org/2000/svg" xmlns:xlink="http://www.w3.org/1999/xlink" width="500" zoomAndPan="magnify" viewBox="0 0 375 374.999991" height="500" preserveAspectRatio="xMidYMid meet" version="1.0"><defs><g/><clipPath id="09f2f6c816"><path d="M 124.21875 87.246094 L 185.71875 87.246094 L 185.71875 148.746094 L 124.21875 148.746094 Z M 124.21875 87.246094 " clip-rule="nonzero"/></clipPath><clipPath id="db9aed037f"><path d="M 187.984375 104.109375 L 249.484375 104.109375 L 249.484375 165.609375 L 187.984375 165.609375 Z M 187.984375 104.109375 " clip-rule="nonzero"/></clipPath><clipPath id="33bc38bd9a"><path d="M 124.21875 151.011719 L 185.71875 151.011719 L 185.71875 212.511719 L 124.21875 212.511719 Z M 124.21875 151.011719 " clip-rule="nonzero"/></clipPath><clipPath id="d4739e29ae"><path d="M 187.984375 167.878906 L 249.484375 167.878906 L 249.484375 229.378906 L 187.984375 229.378906 Z M 187.984375 167.878906 " clip-rule="nonzero"/></clipPath></defs><g clip-path="url(#09f2f6c816)"><path fill="#008e97" d="M 124.21875 87.246094 L 185.71875 87.246094 L 185.71875 148.746094 L 124.21875 148.746094 Z M 124.21875 87.246094 " fill-opacity="1" fill-rule="nonzero"/></g><g clip-path="url(#db9aed037f)"><path fill="#f58220" d="M 187.984375 104.109375 L 249.484375 104.109375 L 249.484375 165.609375 L 187.984375 165.609375 Z M 187.984375 104.109375 " fill-opacity="1" fill-rule="nonzero"/></g><g clip-path="url(#33bc38bd9a)"><path fill="#f58220" d="M 124.21875 151.011719 L 185.71875 151.011719 L 185.71875 212.511719 L 124.21875 212.511719 Z M 124.21875 151.011719 " fill-opacity="1" fill-rule="nonzero"/></g><g clip-path="url(#d4739e29ae)"><path fill="#008e97" d="M 187.984375 167.878906 L 249.484375 167.878906 L 249.484375 229.378906 L 187.984375 229.378906 Z M 187.984375 167.878906 " fill-opacity="1" fill-rule="nonzero"/></g><g fill="#ffffff" fill-opacity="1"><g transform="translate(134.231026, 131.433947)"><g><path d="M 40.390625 -27.0625 L 31.15625 0 L 29.84375 0 L 21.03125 -25.25 L 12.25 0 L 10.90625 0 L 1.65625 -27.0625 L 3.046875 -27.0625 L 11.59375 -1.890625 L 20.40625 -27.0625 L 21.6875 -27.0625 L 30.46875 -1.859375 L 39.078125 -27.0625 Z M 40.390625 -27.0625 "/></g></g></g><g fill="#ffffff" fill-opacity="1"><g transform="translate(204.959581, 148.8252)"><g><path d="M 23.96875 0 L 17.28125 -9.3125 C 16.40625 -9.15625 15.425781 -9.078125 14.34375 -9.078125 L 6.265625 -9.078125 L 6.265625 0 L 4.953125 0 L 4.953125 -27.0625 L 14.34375 -27.0625 C 17.71875 -27.0625 20.351562 -26.265625 22.25 -24.671875 C 24.144531 -23.085938 25.09375 -20.894531 25.09375 -18.09375 C 25.09375 -15.925781 24.53125 -14.113281 23.40625 -12.65625 C 22.28125 -11.195312 20.675781 -10.1875 18.59375 -9.625 L 25.515625 0 Z M 14.421875 -10.28125 C 17.429688 -10.28125 19.75 -10.957031 21.375 -12.3125 C 23 -13.664062 23.8125 -15.59375 23.8125 -18.09375 C 23.8125 -20.5625 23 -22.472656 21.375 -23.828125 C 19.75 -25.179688 17.429688 -25.859375 14.421875 -25.859375 L 6.265625 -25.859375 L 6.265625 -10.28125 Z M 14.421875 -10.28125 "/></g></g></g><g fill="#ffffff" fill-opacity="1"><g transform="translate(138.356026, 191.512838)"><g><path d="M 16.15625 0.15625 C 13.53125 0.15625 11.15625 -0.4375 9.03125 -1.625 C 6.90625 -2.8125 5.234375 -4.445312 4.015625 -6.53125 C 2.804688 -8.613281 2.203125 -10.945312 2.203125 -13.53125 C 2.203125 -16.101562 2.804688 -18.429688 4.015625 -20.515625 C 5.234375 -22.609375 6.90625 -24.25 9.03125 -25.4375 C 11.15625 -26.625 13.53125 -27.21875 16.15625 -27.21875 C 18.78125 -27.21875 21.160156 -26.625 23.296875 -25.4375 C 25.441406 -24.25 27.117188 -22.609375 28.328125 -20.515625 C 29.546875 -18.429688 30.15625 -16.101562 30.15625 -13.53125 C 30.15625 -10.945312 29.546875 -8.613281 28.328125 -6.53125 C 27.117188 -4.445312 25.441406 -2.8125 23.296875 -1.625 C 21.160156 -0.4375 18.78125 0.15625 16.15625 0.15625 Z M 16.15625 -1.046875 C 18.53125 -1.046875 20.679688 -1.585938 22.609375 -2.671875 C 24.546875 -3.753906 26.066406 -5.25 27.171875 -7.15625 C 28.285156 -9.0625 28.84375 -11.1875 28.84375 -13.53125 C 28.84375 -15.875 28.285156 -18 27.171875 -19.90625 C 26.066406 -21.8125 24.546875 -23.304688 22.609375 -24.390625 C 20.679688 -25.472656 18.53125 -26.015625 16.15625 -26.015625 C 13.789062 -26.015625 11.644531 -25.472656 9.71875 -24.390625 C 7.800781 -23.304688 6.285156 -21.8125 5.171875 -19.90625 C 4.066406 -18 3.515625 -15.875 3.515625 -13.53125 C 3.515625 -11.1875 4.066406 -9.0625 5.171875 -7.15625 C 6.285156 -5.25 7.800781 -3.753906 9.71875 -2.671875 C 11.644531 -1.585938 13.789062 -1.046875 16.15625 -1.046875 Z M 16.15625 -1.046875 "/></g></g></g><g fill="#ffffff" fill-opacity="1"><g transform="translate(202.873643, 207.323058)"><g><path d="M 4.953125 -27.0625 L 15.390625 -27.0625 C 18.191406 -27.0625 20.679688 -26.476562 22.859375 -25.3125 C 25.035156 -24.15625 26.722656 -22.550781 27.921875 -20.5 C 29.128906 -18.457031 29.734375 -16.132812 29.734375 -13.53125 C 29.734375 -10.925781 29.128906 -8.597656 27.921875 -6.546875 C 26.722656 -4.503906 25.035156 -2.898438 22.859375 -1.734375 C 20.679688 -0.578125 18.191406 0 15.390625 0 L 4.953125 0 Z M 15.3125 -1.203125 C 17.9375 -1.203125 20.234375 -1.726562 22.203125 -2.78125 C 24.179688 -3.84375 25.707031 -5.304688 26.78125 -7.171875 C 27.863281 -9.035156 28.40625 -11.15625 28.40625 -13.53125 C 28.40625 -15.90625 27.863281 -18.023438 26.78125 -19.890625 C 25.707031 -21.753906 24.179688 -23.210938 22.203125 -24.265625 C 20.234375 -25.328125 17.9375 -25.859375 15.3125 -25.859375 L 6.265625 -25.859375 L 6.265625 -1.203125 Z M 15.3125 -1.203125 "/></g></g></g><g fill="#222222" fill-opacity="1"><g transform="translate(144.357569, 264.492331)"><g><path d="M 2.203125 -13.5 L 3.625 -13.5 L 3.625 -1.234375 L 11.1875 -1.234375 L 11.1875 0 L 2.203125 0 Z M 2.203125 -13.5 "/></g></g></g><g fill="#222222" fill-opacity="1"><g transform="translate(160.331339, 264.492331)"><g><path d="M 11.75 -1.234375 L 11.75 0 L 2.203125 0 L 2.203125 -13.5 L 11.453125 -13.5 L 11.453125 -12.265625 L 3.625 -12.265625 L 3.625 -7.46875 L 10.609375 -7.46875 L 10.609375 -6.25 L 3.625 -6.25 L 3.625 -1.234375 Z M 11.75 -1.234375 "/></g></g></g><g fill="#222222" fill-opacity="1"><g transform="translate(177.846353, 264.492331)"><g><path d="M 10.65625 -3.609375 L 3.140625 -3.609375 L 1.515625 0 L 0.03125 0 L 6.203125 -13.5 L 7.609375 -13.5 L 13.78125 0 L 12.28125 0 Z M 10.140625 -4.765625 L 6.90625 -12.015625 L 3.65625 -4.765625 Z M 10.140625 -4.765625 "/></g></g></g><g fill="#222222" fill-opacity="1"><g transform="translate(196.286117, 264.492331)"><g><path d="M 11.421875 0 L 8.328125 -4.34375 C 7.984375 -4.300781 7.625 -4.28125 7.25 -4.28125 L 3.625 -4.28125 L 3.625 0 L 2.203125 0 L 2.203125 -13.5 L 7.25 -13.5 C 8.96875 -13.5 10.316406 -13.085938 11.296875 -12.265625 C 12.273438 -11.441406 12.765625 -10.3125 12.765625 -8.875 C 12.765625 -7.8125 12.492188 -6.914062 11.953125 -6.1875 C 11.421875 -5.46875 10.660156 -4.945312 9.671875 -4.625 L 12.96875 0 Z M 7.21875 -5.5 C 8.550781 -5.5 9.570312 -5.789062 10.28125 -6.375 C 10.988281 -6.96875 11.34375 -7.800781 11.34375 -8.875 C 11.34375 -9.96875 10.988281 -10.804688 10.28125 -11.390625 C 9.570312 -11.972656 8.550781 -12.265625 7.21875 -12.265625 L 3.625 -12.265625 L 3.625 -5.5 Z M 7.21875 -5.5 "/></g></g></g><g fill="#222222" fill-opacity="1"><g transform="translate(214.84148, 264.492331)"><g><path d="M 13.484375 -13.5 L 13.484375 0 L 12.296875 0 L 3.625 -10.953125 L 3.625 0 L 2.203125 0 L 2.203125 -13.5 L 3.375 -13.5 L 12.0625 -2.546875 L 12.0625 -13.5 Z M 13.484375 -13.5 "/></g></g></g></svg>